<svg width="141" height="26" viewBox="0 0 141 26" fill="none" xmlns="http://www.w3.org/2000/svg">
<path d="M124.537 25.5645V0.730469H129.341V25.5645H124.537ZM128.07 25.5645V21.2901H140.716V25.5645H128.07Z" fill="white"/>
<path d="M96.6639 25.5645L106.661 0.730469H110.582L120.544 25.5645H115.422L107.721 5.18152H109.487L101.68 25.5645H96.6639ZM101.963 20.9368V16.9097H115.316V20.9368H101.963Z" fill="white"/>
<path d="M84.6139 25.5645V1.26036H89.4535V25.5645H84.6139ZM76.7009 5.00489V0.730469H97.3665V5.00489H76.7009Z" fill="white"/>
<path d="M67.5065 25.5645V0.730469H72.3108V25.5645H67.5065Z" fill="white"/>
<path d="M50.4329 25.9177C48.6666 25.9177 47.0063 25.5997 45.452 24.9639C43.9212 24.3045 42.567 23.386 41.3895 22.2085C40.2355 21.0309 39.3288 19.6768 38.6694 18.146C38.0336 16.5917 37.7156 14.9196 37.7156 13.1297C37.7156 11.3163 38.0453 9.64426 38.7048 8.11347C39.3642 6.55914 40.2826 5.20498 41.4602 4.05101C42.6377 2.87348 44.0154 1.96678 45.5933 1.33092C47.1712 0.671504 48.8786 0.341797 50.7155 0.341797C52.7644 0.341797 54.6485 0.73038 56.3677 1.50755C58.0869 2.26116 59.5117 3.33271 60.6421 4.7222L57.3921 7.97217C56.6149 6.9595 55.6494 6.18233 54.4954 5.64067C53.3414 5.09901 52.0697 4.82818 50.6802 4.82818C49.1023 4.82818 47.7011 5.18143 46.4764 5.88795C45.2754 6.57092 44.3333 7.53649 43.6504 8.78466C42.9674 10.0093 42.6259 11.4459 42.6259 13.0944C42.6259 14.743 42.9556 16.2031 43.615 17.4748C44.298 18.723 45.2165 19.7003 46.3705 20.4069C47.548 21.1134 48.8904 21.4666 50.3976 21.4666C51.9519 21.4666 53.2825 21.184 54.3894 20.6188C55.4963 20.03 56.3441 19.1822 56.9329 18.0754C57.5216 16.9449 57.816 15.5672 57.816 13.9422L60.96 16.0971L50.115 15.9911V11.8227H62.7616V12.4939C62.7616 15.4612 62.2317 17.9458 61.172 19.9476C60.1122 21.9259 58.6521 23.4213 56.7916 24.434C54.9546 25.4231 52.8351 25.9177 50.4329 25.9177Z" fill="white"/>
<path d="M27.9914 25.5645V0.730469H32.7957V25.5645H27.9914Z" fill="white"/>
<path d="M3.82595 25.5645V21.2901H10.1493C11.7507 21.2901 13.152 20.9604 14.353 20.301C15.5541 19.618 16.4844 18.6642 17.1438 17.4396C17.8267 16.2149 18.1682 14.7666 18.1682 13.0945C18.1682 11.4695 17.8267 10.0565 17.1438 8.8554C16.4608 7.63078 15.5188 6.68875 14.3177 6.02934C13.1166 5.34637 11.7272 5.00489 10.1493 5.00489H3.71997V0.730469H10.2199C12.0569 0.730469 13.7525 1.03663 15.3068 1.64894C16.8847 2.26125 18.2507 3.13262 19.4046 4.26305C20.5822 5.36992 21.4889 6.67698 22.1247 8.18421C22.7841 9.69145 23.1138 11.34 23.1138 13.1298C23.1138 14.9197 22.7841 16.58 22.1247 18.1108C21.4889 19.618 20.5939 20.9368 19.44 22.0673C18.286 23.1741 16.92 24.0337 15.3422 24.646C13.7878 25.2584 12.104 25.5645 10.2906 25.5645H3.82595ZM0.540649 25.5645V0.730469H5.34496V25.5645H0.540649Z" fill="white"/>
</svg>
