<svg width="70" height="63" viewBox="0 0 70 63" fill="none" xmlns="http://www.w3.org/2000/svg">
<path d="M45.0668 57.6031H37.6775V51.1821H32.335V57.6031H24.9458C23.4706 57.6031 22.2746 58.7991 22.2746 60.2743C22.2746 61.7495 23.4706 62.9455 24.9458 62.9455H45.0667C46.5419 62.9455 47.7379 61.7495 47.7379 60.2743C47.7379 58.7991 46.542 57.6031 45.0668 57.6031Z" fill="white" fill-opacity="0.1"/>
<path d="M39.9861 42.3224H30.0137H0V45.5133C0 46.6747 0.944863 47.6197 2.10629 47.6197H67.8937C69.0551 47.6197 70 46.6747 70 45.5133V42.3224H39.9861Z" fill="white" fill-opacity="0.1"/>
<path d="M67.8936 0.0545654H2.10629C0.944863 0.0545654 0 0.999429 0 2.16085V38.7611H4.92584C5.2407 22.4449 18.6097 9.26832 34.9999 9.26832C40.6585 9.26832 45.9566 10.8399 50.4826 13.568L52.2493 11.1545C52.8302 10.3611 53.9444 10.1886 54.7381 10.7695C55.5317 11.3505 55.7041 12.4648 55.1231 13.2585L53.4201 15.5847C60.3657 20.9805 64.8923 29.3479 65.0739 38.7611H69.9997V2.16085C69.9999 0.999429 69.055 0.0545654 67.8936 0.0545654Z" fill="white" fill-opacity="0.1"/>
<path d="M50.0723 36.8471C49.4444 33.0516 47.4699 29.7925 44.6848 27.5146L39.3802 34.761C40.2557 35.5072 40.9398 36.471 41.3463 37.5691H50.3641C50.2189 37.3596 50.1166 37.1153 50.0723 36.8471Z" fill="white" fill-opacity="0.1"/>
<path d="M34.9965 24.071C30.62 24.071 26.6434 25.898 23.8421 28.8857C23.8292 28.9051 23.8179 28.9251 23.804 28.9441C23.7117 29.0708 23.6055 29.1808 23.4895 29.2755C21.6724 31.3531 20.4019 33.943 19.9213 36.8475C19.877 37.1158 19.7748 37.3601 19.6297 37.5697H28.6475C29.6025 34.989 32.0881 33.1442 34.9963 33.1442C35.3667 33.1442 35.7298 33.1754 36.0842 33.233L41.6759 25.5942C39.6519 24.6159 37.3839 24.071 34.9965 24.071Z" fill="white" fill-opacity="0.1"/>
<path d="M61.4667 37.5684C60.9509 29.82 57.0917 22.972 51.3231 18.457L46.7841 24.6578C46.9405 24.7833 47.0971 24.9084 47.2497 25.0391C50.6215 27.9278 52.8747 31.9145 53.5944 36.2649C53.6729 36.7399 53.556 37.2019 53.3023 37.5684H61.4667Z" fill="white" fill-opacity="0.1"/>
<path d="M16.4066 36.2656C16.8888 33.3505 18.0626 30.6004 19.7973 28.2329L13.605 23.73C13.5985 23.7252 13.5927 23.7196 13.5863 23.7148C10.7029 27.6523 8.87772 32.4111 8.53442 37.5692H16.6987C16.445 37.2024 16.3281 36.7406 16.4066 36.2656Z" fill="white" fill-opacity="0.1"/>
<path d="M15.8805 20.9837L22.1706 25.5578C22.3596 25.382 22.5517 25.2089 22.7483 25.0404C25.7049 22.5076 29.3669 20.9632 33.2115 20.5965V12.8916C26.4218 13.344 20.3237 16.3622 15.8805 20.9837Z" fill="white" fill-opacity="0.1"/>
<path d="M36.7773 12.8916V20.5965C39.2379 20.8309 41.6236 21.5467 43.7972 22.6971L48.3664 16.455C44.921 14.4356 40.9817 13.1717 36.7773 12.8916Z" fill="white" fill-opacity="0.1"/>
</svg>
