<svg width="70" height="57" viewBox="0 0 70 57" fill="none" xmlns="http://www.w3.org/2000/svg">
<path d="M32.8125 13.1875H37.1875V17.5625H32.8125V13.1875ZM14.2188 13.1875C13.615 13.1875 13.125 13.6775 13.125 14.2812C13.125 14.885 13.615 15.375 14.2188 15.375C14.8225 15.375 15.3125 14.885 15.3125 14.2812C15.3125 13.6775 14.8225 13.1875 14.2188 13.1875ZM47.0312 54.75H43.75V50.375H26.25V54.75H22.9688C22.365 54.75 21.875 55.24 21.875 55.8438C21.875 56.4475 22.365 56.9375 22.9688 56.9375H47.0312C47.635 56.9375 48.125 56.4475 48.125 55.8438C48.125 55.24 47.635 54.75 47.0312 54.75ZM70 6.625V41.625C70 45.2497 67.0622 48.1875 63.4375 48.1875H6.5625C2.93781 48.1875 0 45.2497 0 41.625V6.625C0 3.00031 2.93781 0.0625 6.5625 0.0625H63.4375C67.0622 0.0625 70 3.00031 70 6.625ZM58.9881 13.5681C58.7256 12.3169 57.7041 11.315 56.4506 11.0656C54.74 10.7287 53.2241 11.7219 52.7034 13.1875H39.375V11H30.625V13.1875H17.2987C16.7781 11.7219 15.26 10.7287 13.5516 11.0656C12.2981 11.3128 11.2766 12.3169 11.0141 13.5681C10.5656 15.6922 12.1734 17.5625 14.2188 17.5625C15.645 17.5625 16.8481 16.6459 17.2987 15.375H30.625V15.865C21.0262 17.8272 13.6828 26.0544 13.1556 36.0906C13.1228 36.7184 13.6216 37.25 14.2516 37.25C14.8269 37.25 15.3103 36.8038 15.3388 36.2284C15.7959 27.3363 22.1944 20.0191 30.625 18.0963V19.75H39.375V18.0941C47.8056 20.0191 54.2041 27.3362 54.6613 36.2262C54.6919 36.8037 55.1731 37.25 55.7484 37.25C56.3784 37.25 56.8772 36.7184 56.8444 36.0906C56.3172 26.0544 48.9738 17.8272 39.375 15.865V15.375H52.7012C53.1541 16.6459 54.355 17.5625 55.7812 17.5625C57.8266 17.5625 59.4344 15.6922 58.9881 13.5681ZM55.7812 13.1875C55.1775 13.1875 54.6875 13.6775 54.6875 14.2812C54.6875 14.885 55.1775 15.375 55.7812 15.375C56.385 15.375 56.875 14.885 56.875 14.2812C56.875 13.6775 56.385 13.1875 55.7812 13.1875Z" fill="white" fill-opacity="0.1"/>
</svg>
