<svg width="70" height="71" viewBox="0 0 70 71" fill="none" xmlns="http://www.w3.org/2000/svg">
<path d="M58.3747 22.9836H50.3003V31.058H58.3747V22.9836Z" fill="white" fill-opacity="0.1"/>
<path d="M39.0455 22.9836H30.9712V31.058H39.0455V22.9836Z" fill="white" fill-opacity="0.1"/>
<path d="M19.7065 22.9836H11.6321V31.058H19.7065V22.9836Z" fill="white" fill-opacity="0.1"/>
<path d="M-0.000198364 0.5V9.35721H2.1426H4.28554H65.7143H67.8572H70V0.5H-0.000198364Z" fill="white" fill-opacity="0.1"/>
<path d="M67.8572 13.6427H65.7144H4.28554H2.1426H-0.000198364V70.5H70V13.6427H67.8572ZM16.4999 65.2143H8.85701V60.9285H16.4999V65.2143ZM23.1427 58.6427H8.85701V54.357H23.1428V58.6427H23.1427ZM23.1427 52.0713H8.85701V47.7856H23.1428V52.0713H23.1427ZM13.5284 43.8571V39.5713H17.8142V43.8571H13.5284ZM23.9941 35.3441H7.34846V18.6984H23.9941V35.3441ZM35.4999 65.2143H27.857V60.9285H35.4999V65.2143ZM42.1428 58.6427H27.857V54.357H42.1428V58.6427ZM42.1428 52.0713H27.857V47.7856H42.1428V52.0713ZM32.8571 43.8571V39.5713H37.1428V43.8571H32.8571ZM43.3228 35.3441H26.677V18.6984H43.3228V35.3441ZM54.5 65.2143H46.8571V60.9285H54.5V65.2143ZM61.1428 58.6427H46.857V54.357H61.1428V58.6427ZM61.1428 52.0713H46.857V47.7856H61.1428V52.0713ZM52.1856 43.8571V39.5713H56.4714V43.8571H52.1856ZM62.6513 35.3441H46.0057V18.6984H62.6513V35.3441Z" fill="white" fill-opacity="0.1"/>
</svg>
