<svg width="70" height="71" viewBox="0 0 70 71" fill="none" xmlns="http://www.w3.org/2000/svg">
<g clip-path="url(#clip0_201_512)">
<path d="M58.5805 34.3156C58.5805 49.4022 46.3502 61.6325 31.2636 61.6325C16.1769 61.6325 3.94666 49.4023 3.94666 34.3156C3.94666 19.2288 16.1769 6.99866 31.2636 6.99866V34.3156H58.5805Z" fill="white" fill-opacity="0.06"/>
<path d="M31.2635 1.89453V18.0378C40.2536 18.0378 47.5414 25.3256 47.5414 34.3157H63.6847C63.6847 16.4099 49.1693 1.89453 31.2635 1.89453Z" fill="white" fill-opacity="0.06"/>
<path d="M31.2636 18.0377C22.2735 18.0377 14.9857 25.3255 14.9857 34.3156C14.9857 43.3056 22.2735 50.5934 31.2636 50.5934C40.2536 50.5934 47.5414 43.3056 47.5414 34.3156H31.2636V18.0377Z" fill="white" fill-opacity="0.06"/>
<path d="M31.2635 18.0377V34.3156H47.5414C47.5414 25.3256 40.2536 18.0377 31.2635 18.0377Z" fill="white" fill-opacity="0.06"/>
<path d="M58.8187 67.8664L44.4344 53.482L50.43 47.4865L64.8144 61.8709C66.47 63.5265 66.47 66.2107 64.8144 67.8664C63.1587 69.5219 60.4744 69.5219 58.8187 67.8664Z" fill="white" fill-opacity="0.06"/>
<path d="M65.8003 60.8847L55.1565 50.2409C58.0546 45.9052 59.6925 40.9261 59.9405 35.7101H63.6847C64.4548 35.7101 65.0792 35.0858 65.0792 34.3155C65.0792 25.2831 61.5619 16.7914 55.1748 10.4044C48.7877 4.01749 40.296 0.5 31.2636 0.5C30.4934 0.5 29.869 1.12426 29.869 1.89453V5.63856C14.6828 6.36837 2.55228 18.9517 2.55228 34.3157C2.55228 50.1471 15.4321 63.027 31.2636 63.027C36.9865 63.027 42.4687 61.3645 47.1891 58.2087L57.8327 68.8524C58.931 69.9507 60.3739 70.4999 61.8165 70.4999C63.2591 70.4999 64.7019 69.9507 65.8003 68.8523C67.9969 66.6557 67.9969 63.0814 65.8003 60.8847ZM53.1417 48.2258L51.4163 46.5004C50.8717 45.9559 49.9888 45.956 49.4442 46.5004L47.4324 48.5122L44.7008 45.7806C47.0565 43.0237 48.581 39.5364 48.8811 35.7102H57.1494C56.9136 40.1845 55.5433 44.4614 53.1417 48.2258ZM32.6581 32.921V19.4981C39.7541 20.1607 45.4186 25.8252 46.0811 32.921H32.6581ZM29.8692 34.3155C29.8692 35.0857 30.4934 35.7101 31.2637 35.7101H46.0823C45.3767 43.2651 39.0001 49.199 31.2637 49.199C23.0569 49.199 16.3804 42.5223 16.3804 34.3157C16.3804 26.5793 22.3141 20.2026 29.8693 19.4972L29.8692 34.3155ZM32.6581 3.31996C48.6606 4.03048 61.5489 16.9187 62.2594 32.9211H48.8814C48.2042 24.2861 41.2931 17.3752 32.6581 16.6979V3.31996ZM31.2636 60.238C16.9699 60.238 5.3412 48.6093 5.3412 34.3157C5.3412 20.4896 16.221 9.15701 29.8692 8.43022V16.6983C20.774 17.4115 13.5913 25.0404 13.5913 34.3157C13.5913 44.0603 21.5191 51.9879 31.2636 51.9879C35.635 51.9879 39.64 50.3917 42.7285 47.7526L45.4601 50.4843L43.4485 52.496C43.1871 52.7574 43.0401 53.1121 43.0401 53.482C43.0401 53.8518 43.1871 54.2066 43.4485 54.468L45.1744 56.1939C41.0208 58.8445 36.2433 60.238 31.2636 60.238ZM63.8283 66.8802C62.7192 67.9896 60.9142 67.9897 59.8049 66.8802L46.4065 53.4818L50.43 49.4583L63.8283 62.8566C64.9375 63.9661 64.9375 65.771 63.8283 66.8802Z" fill="#1B1B1B" fill-opacity="0.8"/>
<path d="M20.2081 30.7005C20.399 30.7896 20.5997 30.8319 20.7972 30.8319C21.3221 30.8319 21.8248 30.534 22.0616 30.0271C23.1961 27.5975 25.2901 25.6813 27.8065 24.7699C28.5307 24.5075 28.9049 23.7079 28.6428 22.9838C28.3805 22.2596 27.5808 21.8854 26.8567 22.1475C23.649 23.3095 20.9803 25.7514 19.5346 28.847C19.2088 29.5447 19.5103 30.3745 20.2081 30.7005Z" fill="white" fill-opacity="0.06"/>
<path d="M19.866 32.0012C19.0984 31.9392 18.4267 32.5137 18.366 33.2814C18.3389 33.6236 18.3252 33.9715 18.3252 34.3157C18.3252 35.0858 18.9495 35.7102 19.7198 35.7102C20.4899 35.7102 21.1143 35.0859 21.1143 34.3157C21.1143 34.0445 21.1252 33.7706 21.1464 33.5012C21.207 32.7334 20.6339 32.0617 19.866 32.0012Z" fill="white" fill-opacity="0.06"/>
</g>
<defs>
<clipPath id="clip0_201_512">
<rect width="70" height="70" fill="white" transform="translate(0 0.5)"/>
</clipPath>
</defs>
</svg>
