<svg width="20" height="21" viewBox="0 0 20 21" fill="none" xmlns="http://www.w3.org/2000/svg">
<g clip-path="url(#clip0_201_385)">
<mask id="mask0_201_385" style="mask-type:alpha" maskUnits="userSpaceOnUse" x="0" y="0" width="20" height="21">
<path fill-rule="evenodd" clip-rule="evenodd" d="M5.83301 18.4748C5.83301 17.5543 6.5792 16.8081 7.49967 16.8081C8.42015 16.8081 9.16634 17.5543 9.16634 18.4748C9.16634 19.3952 8.42015 20.1414 7.49967 20.1414C6.5792 20.1414 5.83301 19.3952 5.83301 18.4748Z" fill="#7A869A"/>
<path fill-rule="evenodd" clip-rule="evenodd" d="M15 18.4748C15 17.5543 15.7462 16.8081 16.6667 16.8081C17.5871 16.8081 18.3333 17.5543 18.3333 18.4748C18.3333 19.3952 17.5871 20.1414 16.6667 20.1414C15.7462 20.1414 15 19.3952 15 18.4748Z" fill="#7A869A"/>
<path fill-rule="evenodd" clip-rule="evenodd" d="M0 1.80843C0 1.34819 0.373096 0.975098 0.833333 0.975098H4.16667C4.56386 0.975098 4.90584 1.25542 4.98379 1.64488L5.68369 5.14176H19.1667C19.415 5.14176 19.6504 5.25254 19.8087 5.44389C19.9671 5.63525 20.0318 5.88725 19.9852 6.1312L18.6507 13.1291C18.5364 13.7046 18.2233 14.2216 17.7663 14.5895C17.3115 14.9556 16.743 15.1509 16.1595 15.1418H8.07387C7.49031 15.1509 6.92184 14.9556 6.46707 14.5895C6.01021 14.2217 5.6972 13.705 5.58277 13.1298C5.58273 13.1296 5.58282 13.1301 5.58277 13.1298L4.19066 6.17443C4.18501 6.15143 4.18032 6.12804 4.17663 6.10433L3.4836 2.64176H0.833333C0.373096 2.64176 0 2.26867 0 1.80843ZM6.01727 6.80843L7.21737 12.8044C7.25547 12.9962 7.35983 13.1686 7.51218 13.2912C7.66453 13.4138 7.85516 13.479 8.0507 13.4752L8.06667 13.4751H16.1667L16.1826 13.4752C16.3782 13.479 16.5688 13.4138 16.7212 13.2912C16.8728 13.1691 16.9769 12.9979 17.0154 12.8071L18.1594 6.80843H6.01727Z" fill="#7A869A"/>
</mask>
<g mask="url(#mask0_201_385)">
<rect opacity="0.6" y="0.975098" width="20" height="20" fill="#0A0C0C"/>
</g>
</g>
<defs>
<clipPath id="clip0_201_385">
<rect width="20" height="20" fill="white" transform="translate(0 0.975098)"/>
</clipPath>
</defs>
</svg>
