<svg width="138" height="15" viewBox="0 0 138 15" fill="none" xmlns="http://www.w3.org/2000/svg">
<path d="M134.34 14.609C133.837 14.609 133.354 14.5429 132.891 14.4106C132.428 14.265 132.005 14.0666 131.621 13.8152C131.25 13.5638 130.926 13.2661 130.648 12.9221L131.541 12.0092C131.912 12.4591 132.329 12.7964 132.792 13.0214C133.268 13.2331 133.797 13.3389 134.379 13.3389C135.001 13.3389 135.484 13.2198 135.828 12.9817C136.185 12.7435 136.364 12.4128 136.364 11.9894C136.364 11.5925 136.238 11.2815 135.987 11.0566C135.736 10.8317 135.411 10.6531 135.015 10.5208C134.631 10.3885 134.221 10.2628 133.784 10.1437C133.347 10.0114 132.931 9.85263 132.534 9.6674C132.137 9.46894 131.813 9.19771 131.561 8.85371C131.323 8.50972 131.204 8.05987 131.204 7.50419C131.204 6.97496 131.33 6.51851 131.581 6.13482C131.846 5.7379 132.216 5.43359 132.693 5.2219C133.182 4.99698 133.758 4.88452 134.419 4.88452C135.12 4.88452 135.755 5.01021 136.324 5.26159C136.893 5.51298 137.35 5.88343 137.694 6.37297L136.801 7.26604C136.523 6.90881 136.172 6.63758 135.749 6.45235C135.339 6.25389 134.876 6.15466 134.36 6.15466C133.764 6.15466 133.308 6.27374 132.99 6.51189C132.686 6.73681 132.534 7.0345 132.534 7.40496C132.534 7.76218 132.659 8.04664 132.911 8.25833C133.162 8.45679 133.48 8.62218 133.863 8.75448C134.26 8.87356 134.677 8.99925 135.114 9.13156C135.55 9.25063 135.967 9.41602 136.364 9.62771C136.761 9.82616 137.078 10.104 137.317 10.4612C137.568 10.8052 137.694 11.2749 137.694 11.8703C137.694 12.7038 137.389 13.372 136.781 13.8747C136.185 14.3643 135.372 14.609 134.34 14.609Z" fill="white"/>
<path d="M122.292 14.4106L117.529 9.62768L122.213 5.08296H123.939L118.839 9.98491L118.879 9.19107L124.138 14.4106H122.292ZM116.279 14.4106V0.359619H117.668V14.4106H116.279Z" fill="white"/>
<path d="M102.258 14.4106V5.08298H103.647V14.4106H102.258ZM103.647 8.97279L103.072 8.71479C103.072 7.53726 103.356 6.6045 103.925 5.91651C104.507 5.22852 105.301 4.88452 106.307 4.88452C106.77 4.88452 107.193 4.97052 107.577 5.14252C107.96 5.30129 108.318 5.55928 108.648 5.91651L107.735 6.88896C107.511 6.63758 107.259 6.45897 106.981 6.35312C106.717 6.24728 106.412 6.19435 106.068 6.19435C105.354 6.19435 104.772 6.43251 104.322 6.90881C103.872 7.37188 103.647 8.05987 103.647 8.97279Z" fill="white"/>
<path d="M89.0532 14.609C88.1535 14.609 87.3332 14.3907 86.5923 13.9541C85.8646 13.5175 85.2825 12.9287 84.8459 12.1878C84.4225 11.4469 84.2108 10.62 84.2108 9.70709C84.2108 8.8074 84.4225 7.99372 84.8459 7.26604C85.2825 6.53835 85.8646 5.96282 86.5923 5.53944C87.3332 5.10283 88.1535 4.88452 89.0532 4.88452C89.9661 4.88452 90.7864 5.09621 91.5141 5.51959C92.2418 5.94297 92.8173 6.52512 93.2407 7.26604C93.6773 7.99372 93.8956 8.8074 93.8956 9.70709C93.8956 10.6332 93.6773 11.4668 93.2407 12.2077C92.8173 12.9354 92.2418 13.5175 91.5141 13.9541C90.7864 14.3907 89.9661 14.609 89.0532 14.609ZM89.0532 13.2595C89.7148 13.2595 90.2969 13.1074 90.7997 12.8031C91.3157 12.4988 91.7192 12.0754 92.0103 11.5329C92.3146 10.9905 92.4667 10.3819 92.4667 9.70709C92.4667 9.03233 92.3146 8.43695 92.0103 7.92095C91.7192 7.39173 91.3157 6.97496 90.7997 6.67066C90.2969 6.36635 89.7148 6.2142 89.0532 6.2142C88.4049 6.2142 87.8228 6.36635 87.3068 6.67066C86.7908 6.97496 86.3873 7.39173 86.0962 7.92095C85.8051 8.43695 85.6596 9.03233 85.6596 9.70709C85.6596 10.3951 85.8051 11.0103 86.0962 11.5528C86.3873 12.082 86.7908 12.4988 87.3068 12.8031C87.8228 13.1074 88.4049 13.2595 89.0532 13.2595Z" fill="white"/>
<path d="M66.7768 14.4106L63.1847 5.08301H64.6334L67.4714 12.8229L66.9554 12.8428L69.7735 5.08301H70.5872L73.4053 12.8428L72.8893 12.8229L75.7075 5.08301H77.1761L73.5641 14.4106H72.7504L69.8727 6.76991H70.4681L67.6103 14.4106H66.7768Z" fill="white"/>
<path d="M54.0169 14.4106V8.93307C54.0169 8.11277 53.7722 7.45124 53.2826 6.94848C52.8063 6.43248 52.1713 6.17448 51.3774 6.17448C50.835 6.17448 50.3587 6.29356 49.9485 6.53171C49.5384 6.76986 49.2142 7.09401 48.9761 7.50416C48.7379 7.91431 48.6188 8.384 48.6188 8.91323L47.9838 8.556C47.9838 7.85478 48.1491 7.22632 48.4799 6.67063C48.8107 6.11495 49.2539 5.67834 49.8096 5.3608C50.3785 5.04326 51.0268 4.8845 51.7545 4.8845C52.4689 4.8845 53.104 5.04988 53.6597 5.38065C54.2154 5.69818 54.6454 6.14141 54.9497 6.71032C55.2672 7.27924 55.426 7.94077 55.426 8.69492V14.4106H54.0169ZM47.2296 14.4106V0.359619H48.6188V14.4106H47.2296Z" fill="white"/>
<path d="M35.5759 14.609C34.663 14.609 33.8361 14.3974 33.0951 13.974C32.3675 13.5374 31.7853 12.9486 31.3487 12.2077C30.9253 11.4668 30.7136 10.6398 30.7136 9.72694C30.7136 8.81402 30.9253 7.99372 31.3487 7.26604C31.7853 6.52512 32.3675 5.94297 33.0951 5.51959C33.8361 5.09621 34.663 4.88452 35.5759 4.88452C36.2771 4.88452 36.932 5.01683 37.5406 5.28144C38.1492 5.54605 38.6652 5.91651 39.0886 6.39281L38.1757 7.32557C37.8582 6.96835 37.4745 6.69712 37.0246 6.51189C36.5748 6.31343 36.0919 6.2142 35.5759 6.2142C34.9144 6.2142 34.3256 6.36635 33.8096 6.67066C33.2936 6.97496 32.8901 7.39173 32.599 7.92095C32.3079 8.43695 32.1624 9.03894 32.1624 9.72694C32.1624 10.4017 32.3079 11.0103 32.599 11.5528C32.8901 12.082 33.2936 12.4988 33.8096 12.8031C34.3256 13.1074 34.9144 13.2595 35.5759 13.2595C36.1051 13.2595 36.5946 13.1669 37.0445 12.9817C37.4943 12.7832 37.878 12.5054 38.1955 12.1481L39.1283 13.0809C38.6917 13.5704 38.1625 13.9475 37.5406 14.2121C36.932 14.4767 36.2771 14.609 35.5759 14.609Z" fill="white"/>
<path d="M18.8043 14.609C17.8649 14.609 17.0248 14.3974 16.2839 13.974C15.543 13.5506 14.9542 12.9684 14.5176 12.2275C14.0942 11.4866 13.8825 10.6531 13.8825 9.72694C13.8825 8.81402 14.0942 7.99372 14.5176 7.26604C14.941 6.52512 15.5165 5.94297 16.2442 5.51959C16.9719 5.09621 17.7855 4.88452 18.6852 4.88452C19.532 4.88452 20.2795 5.07637 20.9278 5.46005C21.5894 5.84374 22.1053 6.37958 22.4758 7.06758C22.8595 7.74234 23.0513 8.52295 23.0513 9.4094C23.0513 9.51525 23.0447 9.64094 23.0315 9.78647C23.0183 9.91878 22.9918 10.0775 22.9521 10.2628H14.8748V9.07202H22.198L21.7018 9.50863C21.715 8.82064 21.596 8.23187 21.3446 7.74234C21.1064 7.23957 20.7558 6.85589 20.2928 6.59127C19.8429 6.31343 19.2938 6.17451 18.6455 6.17451C17.9708 6.17451 17.382 6.32005 16.8792 6.61112C16.3765 6.90219 15.9796 7.31234 15.6885 7.84157C15.4106 8.35756 15.2717 8.97279 15.2717 9.68724C15.2717 10.4017 15.4173 11.0302 15.7083 11.5726C16.0126 12.1151 16.4294 12.5384 16.9586 12.8427C17.5011 13.1471 18.1229 13.2992 18.8242 13.2992C19.3931 13.2992 19.9157 13.2 20.392 13.0015C20.8683 12.7898 21.2718 12.4789 21.6026 12.0688L22.4957 12.9817C22.059 13.4977 21.5166 13.9012 20.8683 14.1923C20.2332 14.4701 19.5452 14.609 18.8043 14.609Z" fill="white"/>
<path d="M3.03037 14.4107V1.15356H4.41959V14.4107H3.03037ZM0.668701 6.33336V5.08306H6.76141V6.33336H0.668701Z" fill="white"/>
</svg>
